<?xml version="1.0" encoding="UTF-8" standalone="no"?>
<!-- Created with Inkscape (http://www.inkscape.org/) -->

<svg
   xmlns:dc="http://purl.org/dc/elements/1.1/"
   xmlns:cc="http://creativecommons.org/ns#"
   xmlns:rdf="http://www.w3.org/1999/02/22-rdf-syntax-ns#"
   xmlns:svg="http://www.w3.org/2000/svg"
   xmlns="http://www.w3.org/2000/svg"
   xmlns:sodipodi="http://sodipodi.sourceforge.net/DTD/sodipodi-0.dtd"
   xmlns:inkscape="http://www.inkscape.org/namespaces/inkscape"
   version="1.1"
   id="svg834"
   xml:space="preserve"
   width="794.36743"
   height="1123.1864"
   viewBox="0 0 794.36743 1123.1864"
   sodipodi:docname="Overview.svg"
   inkscape:export-filename="/home/willy/Diagram.png"
   inkscape:export-xdpi="178.78932"
   inkscape:export-ydpi="178.78932"
   inkscape:version="0.92.3 (2405546, 2018-03-11)"><metadata
     id="metadata840"><rdf:RDF><cc:Work
         rdf:about=""><dc:format>image/svg+xml</dc:format><dc:type
           rdf:resource="http://purl.org/dc/dcmitype/StillImage" /><dc:title></dc:title></cc:Work></rdf:RDF></metadata><defs
     id="defs838"><clipPath
       clipPathUnits="userSpaceOnUse"
       id="clipPath852"><path
         d="M 80,80 H 515.277 V 761.891 H 80 Z"
         id="path850"
         inkscape:connector-curvature="0" /></clipPath><clipPath
       clipPathUnits="userSpaceOnUse"
       id="clipPath1146"><rect
         style="fill:#0000ff;fill-rule:evenodd;stroke-width:0.75"
         id="rect1148"
         width="409.33951"
         height="212.0802"
         x="112.56836"
         y="87.934731" /></clipPath><clipPath
       clipPathUnits="userSpaceOnUse"
       id="clipPath1150"><rect
         style="fill:#0000ff;fill-rule:evenodd;stroke-width:0.75"
         id="rect1152"
         width="409.33951"
         height="212.0802"
         x="112.56836"
         y="87.934731" /></clipPath></defs><sodipodi:namedview
     pagecolor="#ffffff"
     bordercolor="#666666"
     borderopacity="1"
     objecttolerance="10"
     gridtolerance="10"
     guidetolerance="10"
     inkscape:pageopacity="0"
     inkscape:pageshadow="2"
     inkscape:window-width="1853"
     inkscape:window-height="1025"
     id="namedview836"
     showgrid="false"
     inkscape:zoom="2.1253752"
     inkscape:cx="424.89543"
     inkscape:cy="871.56195"
     inkscape:window-x="67"
     inkscape:window-y="27"
     inkscape:window-maximized="1"
     inkscape:current-layer="g842" /><g
     id="g842"
     inkscape:groupmode="layer"
     inkscape:label="Overview"
     transform="matrix(1.3333333,0,0,1.3333333,0,4.8079659e-5)"><g
       id="g844"
       clip-path="url(#clipPath1150)" /><g
       id="g846"
       clip-path="url(#clipPath1146)"><g
         id="g848"
         clip-path="url(#clipPath852)"><path
           d="M 0,0 H 596 V 843 H 0 Z"
           style="fill:#ffffff;fill-opacity:1;fill-rule:nonzero;stroke:none"
           id="path854"
           inkscape:connector-curvature="0" /><g
           id="g856"><path
             d="m 243.891,140.457 h 96.285 v 16.156 h -96.285 z"
             style="fill:#ffffff;fill-opacity:1;fill-rule:evenodd;stroke:#000000;stroke-width:1;stroke-linecap:butt;stroke-linejoin:miter;stroke-miterlimit:10;stroke-dasharray:none;stroke-opacity:1"
             id="path858"
             inkscape:connector-curvature="0" /></g><text
           transform="translate(249.98047,150.19628)"
           style="font-variant:normal;font-weight:normal;font-size:5.44238281px;font-family:'DejaVu Sans';-inkscape-font-specification:DejaVuSans;writing-mode:lr-tb;fill:#000000;fill-opacity:1;fill-rule:nonzero;stroke:none"
           id="text862"><tspan
             x="0 3.183794 5.3008809 8.6479464 12.098417 13.605957 16.593826 18.72724 20.234779 23.679808 27.13028 30.319515 32.436604 35.761898 37.895313 41.242378 42.74992 46.194946 47.795006 51.240036 53.373451 56.720516 58.957336 62.288074 65.27594 67.409355 68.916893 72.242195 75.687218 78.517258 80.242493"
             y="0"
             sodipodi:role="line"
             id="tspan860">PredictingProteinInteractions.R</tspan></text>
<g
           id="g864"><path
             d="m 330.387,199.961 h 105.32 v 16.156 h -105.32 z"
             style="fill:#ffffff;fill-opacity:1;fill-rule:evenodd;stroke:#000000;stroke-width:1;stroke-linecap:butt;stroke-linejoin:miter;stroke-miterlimit:10;stroke-dasharray:none;stroke-opacity:1"
             id="path866"
             inkscape:connector-curvature="0" /></g><text
           transform="translate(335.10547,209.70019)"
           style="font-variant:normal;font-weight:normal;font-size:5.44238281px;font-family:'DejaVu Sans';-inkscape-font-specification:DejaVuSans;writing-mode:lr-tb;fill:#000000;fill-opacity:1;fill-rule:nonzero;stroke:none"
           id="text870"><tspan
             x="0 3.9783819 5.4859219 7.6193361 9.8561554 13.186894 17.470049 20.915077 22.422619 25.410486 28.561626 32.093731 35.4408 38.89127 42.238335 45.569073 47.702488 51.049553 54.500023 57.950493 61.395523 64.845993 68.296463 71.627205 76.928085 80.378555 81.886093 83.393631 86.838661 90.289131 92.014366"
             y="0"
             sodipodi:role="line"
             id="tspan868">UltraQuickRepeatedSubSampling.R</tspan></text>
<g
           id="g872"><path
             d="m 161.465,194.82 h 37.078 v 16.156 h -37.078 z"
             style="fill:#ffffff;fill-opacity:1;fill-rule:evenodd;stroke:#000000;stroke-width:1;stroke-linecap:butt;stroke-linejoin:miter;stroke-miterlimit:10;stroke-dasharray:none;stroke-opacity:1"
             id="path874"
             inkscape:connector-curvature="0" /></g><text
           transform="translate(166.92578,204.56347)"
           style="font-variant:normal;font-weight:normal;font-size:5.44238281px;font-family:'DejaVu Sans';-inkscape-font-specification:DejaVuSans;writing-mode:lr-tb;fill:#000000;fill-opacity:1;fill-rule:nonzero;stroke:none"
           id="text878"><tspan
             x="0 4.6913342 8.136363 10.269776 14.06856 17.393856 22.694736"
             y="0"
             sodipodi:role="line"
             id="tspan876">MutComp</tspan></text>
<g
           id="g880"><path
             d="m 263.57,197.297 h 38.609 v 16.156 H 263.57 Z"
             style="fill:#ffffff;fill-opacity:1;fill-rule:evenodd;stroke:#000000;stroke-width:1;stroke-linecap:butt;stroke-linejoin:miter;stroke-miterlimit:10;stroke-dasharray:none;stroke-opacity:1"
             id="path882"
             inkscape:connector-curvature="0" /></g><text
           transform="translate(269.16406,207.04003)"
           style="font-variant:normal;font-weight:normal;font-size:5.44238281px;font-family:'DejaVu Sans';-inkscape-font-specification:DejaVuSans;writing-mode:lr-tb;fill:#000000;fill-opacity:1;fill-rule:nonzero;stroke:none"
           id="text886"><tspan
             x="0 3.183794 5.3008809 8.6261768 10.759591 14.106657 15.614197 19.059225 21.889265 23.6145"
             y="0"
             sodipodi:role="line"
             id="tspan884">Proteins.R</tspan></text>
<g
           id="g888"><path
             d="m 341.812,110.887 c 0,6.918 -22.437,12.527 -50.113,12.527 -27.676,0 -50.113,-5.609 -50.113,-12.527 0,-6.918 22.437,-12.528 50.113,-12.528 27.676,0 50.113,5.61 50.113,12.528"
             style="fill:#ffffff;fill-opacity:1;fill-rule:evenodd;stroke:#000000;stroke-width:1;stroke-linecap:butt;stroke-linejoin:miter;stroke-miterlimit:10;stroke-dasharray:none;stroke-opacity:1"
             id="path890"
             inkscape:connector-curvature="0" /></g><text
           transform="translate(252.40234,112.54784)"
           style="font-variant:normal;font-weight:normal;font-size:5.44238281px;font-family:'DejaVu Sans';-inkscape-font-specification:DejaVuSans;writing-mode:lr-tb;fill:#000000;fill-opacity:1;fill-rule:nonzero;stroke:none"
           id="text894"><tspan
             x="0 3.183794 5.3008809 8.6479464 12.098417 13.605957 16.593826 18.72724 20.234779 23.679808 27.13028 30.319515 32.436604 35.761898 37.895313 41.242378 42.74992 46.194946 47.795006 51.240036 53.373451 56.720516 58.957336 62.288074 65.27594 67.409355 68.916893 72.242195 75.687218"
             y="0"
             sodipodi:role="line"
             id="tspan892">PredictingProteinInteractions</tspan></text>
<g
           id="g896"><path
             d="m 227.758,178.035 c 0,5.891 -13.653,10.668 -30.492,10.668 -16.84,0 -30.493,-4.777 -30.493,-10.668 0,-5.887 13.653,-10.664 30.493,-10.664 16.839,0 30.492,4.777 30.492,10.664"
             style="fill:#ffffff;fill-opacity:1;fill-rule:evenodd;stroke:#000000;stroke-width:1;stroke-linecap:butt;stroke-linejoin:miter;stroke-miterlimit:10;stroke-dasharray:none;stroke-opacity:1"
             id="path898"
             inkscape:connector-curvature="0" /></g><text
           transform="translate(178.28125,179.69628)"
           style="font-variant:normal;font-weight:normal;font-size:5.44238281px;font-family:'DejaVu Sans';-inkscape-font-specification:DejaVuSans;writing-mode:lr-tb;fill:#000000;fill-opacity:1;fill-rule:nonzero;stroke:none"
           id="text902"><tspan
             x="0 3.183794 5.3008809 8.6479464 12.098417 14.220946 17.546244 20.534111 23.881176 26.711216 29.541254 31.048796 34.493824"
             y="0"
             sodipodi:role="line"
             id="tspan900">Preprocessing</tspan></text>
<g
           id="g904"><path
             d="m 314.223,178.445 c 0,4.328 -14.028,7.832 -31.332,7.832 -17.305,0 -31.332,-3.504 -31.332,-7.832 0,-4.324 14.027,-7.832 31.332,-7.832 17.304,0 31.332,3.508 31.332,7.832"
             style="fill:#ffffff;fill-opacity:1;fill-rule:evenodd;stroke:#000000;stroke-width:1;stroke-linecap:butt;stroke-linejoin:miter;stroke-miterlimit:10;stroke-dasharray:none;stroke-opacity:1"
             id="path906"
             inkscape:connector-curvature="0" /></g><text
           transform="translate(269.37891,180.10644)"
           style="font-variant:normal;font-weight:normal;font-size:5.44238281px;font-family:'DejaVu Sans';-inkscape-font-specification:DejaVuSans;writing-mode:lr-tb;fill:#000000;fill-opacity:1;fill-rule:nonzero;stroke:none"
           id="text910"><tspan
             x="0 3.183794 5.3008809 8.6479464 12.098417 13.605957 16.593826 18.72724 20.234779 23.560076"
             y="0"
             sodipodi:role="line"
             id="tspan908">Prediction</tspan></text>
<g
           id="g912"><path
             d="m 243.891,156.613 -21.442,11.875"
             style="fill:none;stroke:#000000;stroke-width:1;stroke-linecap:butt;stroke-linejoin:miter;stroke-miterlimit:10;stroke-dasharray:none;stroke-opacity:1"
             id="path914"
             inkscape:connector-curvature="0" /></g><g
           id="g916"><path
             d="m 219.66,170.035 2.688,-3.922 0.101,2.375 1.961,1.348 z"
             style="fill:#000000;fill-opacity:1;fill-rule:evenodd;stroke:#000000;stroke-width:1;stroke-linecap:butt;stroke-linejoin:miter;stroke-miterlimit:10;stroke-dasharray:none;stroke-opacity:1"
             id="path918"
             inkscape:connector-curvature="0" /></g><g
           id="g920"><path
             d="m 291.699,123.414 0.254,12.902"
             style="fill:none;stroke:#000000;stroke-width:1;stroke-linecap:butt;stroke-linejoin:miter;stroke-miterlimit:10;stroke-dasharray:none;stroke-opacity:1"
             id="path922"
             inkscape:connector-curvature="0" /></g><g
           id="g924"><path
             d="m 292.016,139.508 -2.211,-4.211 2.148,1.019 2.106,-1.101 z"
             style="fill:#000000;fill-opacity:1;fill-rule:evenodd;stroke:#000000;stroke-width:1;stroke-linecap:butt;stroke-linejoin:miter;stroke-miterlimit:10;stroke-dasharray:none;stroke-opacity:1"
             id="path926"
             inkscape:connector-curvature="0" /></g><g
           id="g928"><path
             d="m 124.332,213.809 h 21.961 v 16.156 h -21.961 z"
             style="fill:#ffffff;fill-opacity:1;fill-rule:evenodd;stroke:#000000;stroke-width:1;stroke-linecap:butt;stroke-linejoin:miter;stroke-miterlimit:10;stroke-dasharray:none;stroke-opacity:1"
             id="path930"
             inkscape:connector-curvature="0" /></g><text
           transform="translate(129.00781,223.54784)"
           style="font-variant:normal;font-weight:normal;font-size:5.44238281px;font-family:'DejaVu Sans';-inkscape-font-specification:DejaVuSans;writing-mode:lr-tb;fill:#000000;fill-opacity:1;fill-rule:nonzero;stroke:none"
           id="text934"><tspan
             x="0 3.72259 8.4139242"
             y="0"
             sodipodi:role="line"
             id="tspan932">VMD</tspan></text>
<g
           id="g936"><path
             d="m 153.109,219.406 h 44.496 v 16.156 h -44.496 z"
             style="fill:#ffffff;fill-opacity:1;fill-rule:evenodd;stroke:#000000;stroke-width:1;stroke-linecap:butt;stroke-linejoin:miter;stroke-miterlimit:10;stroke-dasharray:none;stroke-opacity:1"
             id="path938"
             inkscape:connector-curvature="0" /></g><text
           transform="translate(157.80859,229.1455)"
           style="font-variant:normal;font-weight:normal;font-size:5.44238281px;font-family:'DejaVu Sans';-inkscape-font-specification:DejaVuSans;writing-mode:lr-tb;fill:#000000;fill-opacity:1;fill-rule:nonzero;stroke:none"
           id="text942"><tspan
             x="0 3.7987833 7.1458488 10.590878 12.724292 16.071358 18.308176 21.758648 25.105713 26.613253 29.960318 32.948185"
             y="0"
             sodipodi:role="line"
             id="tspan940">CenterSelect</tspan></text>
<g
           id="g944"><path
             d="m 420.957,178.023 c 0,4.336 -14.062,7.852 -31.41,7.852 -17.348,0 -31.41,-3.516 -31.41,-7.852 0,-4.339 14.062,-7.855 31.41,-7.855 17.348,0 31.41,3.516 31.41,7.855"
             style="fill:#ffffff;fill-opacity:1;fill-rule:evenodd;stroke:#000000;stroke-width:1;stroke-linecap:butt;stroke-linejoin:miter;stroke-miterlimit:10;stroke-dasharray:none;stroke-opacity:1"
             id="path946"
             inkscape:connector-curvature="0" /></g><text
           transform="translate(375.6875,179.68456)"
           style="font-variant:normal;font-weight:normal;font-size:5.44238281px;font-family:'DejaVu Sans';-inkscape-font-specification:DejaVuSans;writing-mode:lr-tb;fill:#000000;fill-opacity:1;fill-rule:nonzero;stroke:none"
           id="text950"><tspan
             x="0 3.7987833 5.3063235 8.7513523 11.581391 13.714806 17.061871 19.298691 20.806231 24.251259"
             y="0"
             sodipodi:role="line"
             id="tspan948">Clustering</tspan></text>
<g
           id="g952"><path
             d="m 453.285,200.008 h 42.582 v 16.156 h -42.582 z"
             style="fill:#ffffff;fill-opacity:1;fill-rule:evenodd;stroke:#000000;stroke-width:1;stroke-linecap:butt;stroke-linejoin:miter;stroke-miterlimit:10;stroke-dasharray:none;stroke-opacity:1"
             id="path954"
             inkscape:connector-curvature="0" /></g><text
           transform="translate(457.96094,209.74706)"
           style="font-variant:normal;font-weight:normal;font-size:5.44238281px;font-family:'DejaVu Sans';-inkscape-font-specification:DejaVuSans;writing-mode:lr-tb;fill:#000000;fill-opacity:1;fill-rule:nonzero;stroke:none"
           id="text958"><tspan
             x="0 3.7987833 5.3063235 8.7513523 11.581391 13.714806 17.061871 19.298691 20.806231 24.251259 27.701729 29.426966"
             y="0"
             sodipodi:role="line"
             id="tspan956">Clustering.R</tspan></text>
<g
           id="g960"><path
             d="m 340.176,156.613 17.281,15.629"
             style="fill:none;stroke:#000000;stroke-width:1;stroke-linecap:butt;stroke-linejoin:miter;stroke-miterlimit:10;stroke-dasharray:none;stroke-opacity:1"
             id="path962"
             inkscape:connector-curvature="0" /></g><g
           id="g964"><path
             d="m 359.824,174.379 -4.582,-1.274 2.215,-0.863 0.641,-2.293 z"
             style="fill:#000000;fill-opacity:1;fill-rule:evenodd;stroke:#000000;stroke-width:1;stroke-linecap:butt;stroke-linejoin:miter;stroke-miterlimit:10;stroke-dasharray:none;stroke-opacity:1"
             id="path966"
             inkscape:connector-curvature="0" /></g><g
           id="g968"><path
             d="m 292.035,156.613 -6.879,10.535"
             style="fill:none;stroke:#000000;stroke-width:1;stroke-linecap:butt;stroke-linejoin:miter;stroke-miterlimit:10;stroke-dasharray:none;stroke-opacity:1"
             id="path970"
             inkscape:connector-curvature="0" /></g><g
           id="g972"><path
             d="m 283.41,169.816 0.547,-4.722 1.199,2.054 2.36,0.27 z"
             style="fill:#000000;fill-opacity:1;fill-rule:evenodd;stroke:#000000;stroke-width:1;stroke-linecap:butt;stroke-linejoin:miter;stroke-miterlimit:10;stroke-dasharray:none;stroke-opacity:1"
             id="path974"
             inkscape:connector-curvature="0" /></g><g
           id="g976"><path
             d="m 197.266,188.703 -13.36,4.735"
             style="fill:none;stroke:#000000;stroke-width:1;stroke-linecap:butt;stroke-linejoin:miter;stroke-miterlimit:10;stroke-dasharray:none;stroke-opacity:1"
             id="path978"
             inkscape:connector-curvature="0" /></g><g
           id="g980"><path
             d="m 180.902,194.504 3.297,-3.426 -0.293,2.36 1.711,1.648 z"
             style="fill:#000000;fill-opacity:1;fill-rule:evenodd;stroke:#000000;stroke-width:1;stroke-linecap:butt;stroke-linejoin:miter;stroke-miterlimit:10;stroke-dasharray:none;stroke-opacity:1"
             id="path982"
             inkscape:connector-curvature="0" /></g><g
           id="g984"><path
             d="m 161.465,210.98 -11.102,2.071"
             style="fill:none;stroke:#000000;stroke-width:1;stroke-linecap:butt;stroke-linejoin:miter;stroke-miterlimit:10;stroke-dasharray:none;stroke-opacity:1"
             id="path986"
             inkscape:connector-curvature="0" /></g><g
           id="g988"><path
             d="m 147.227,213.637 3.789,-2.871 -0.653,2.285 1.434,1.894 z"
             style="fill:#000000;fill-opacity:1;fill-rule:evenodd;stroke:#000000;stroke-width:1;stroke-linecap:butt;stroke-linejoin:miter;stroke-miterlimit:10;stroke-dasharray:none;stroke-opacity:1"
             id="path990"
             inkscape:connector-curvature="0" /></g><g
           id="g992"><path
             d="m 180.004,210.98 -2.649,4.801"
             style="fill:none;stroke:#000000;stroke-width:1;stroke-linecap:butt;stroke-linejoin:miter;stroke-miterlimit:10;stroke-dasharray:none;stroke-opacity:1"
             id="path994"
             inkscape:connector-curvature="0" /></g><g
           id="g996"><path
             d="m 175.816,218.574 0.192,-4.75 1.347,1.957 2.375,0.094 z"
             style="fill:#000000;fill-opacity:1;fill-rule:evenodd;stroke:#000000;stroke-width:1;stroke-linecap:butt;stroke-linejoin:miter;stroke-miterlimit:10;stroke-dasharray:none;stroke-opacity:1"
             id="path998"
             inkscape:connector-curvature="0" /></g><g
           id="g1000"><path
             d="m 282.891,186.277 -0.008,6.883"
             style="fill:none;stroke:#000000;stroke-width:1;stroke-linecap:butt;stroke-linejoin:miter;stroke-miterlimit:10;stroke-dasharray:none;stroke-opacity:1"
             id="path1002"
             inkscape:connector-curvature="0" /></g><g
           id="g1004"><path
             d="m 282.875,196.348 -2.117,-4.254 2.125,1.066 2.125,-1.062 z"
             style="fill:#000000;fill-opacity:1;fill-rule:evenodd;stroke:#000000;stroke-width:1;stroke-linecap:butt;stroke-linejoin:miter;stroke-miterlimit:10;stroke-dasharray:none;stroke-opacity:1"
             id="path1006"
             inkscape:connector-curvature="0" /></g><g
           id="g1008"><path
             d="m 282.875,213.457 -0.102,5.508"
             style="fill:none;stroke:#000000;stroke-width:1;stroke-linecap:butt;stroke-linejoin:miter;stroke-miterlimit:10;stroke-dasharray:none;stroke-opacity:1"
             id="path1010"
             inkscape:connector-curvature="0" /></g><g
           id="g1012"><path
             d="m 282.719,222.156 -2.051,-4.289 2.105,1.098 2.145,-1.024 z"
             style="fill:#000000;fill-opacity:1;fill-rule:evenodd;stroke:#000000;stroke-width:1;stroke-linecap:butt;stroke-linejoin:miter;stroke-miterlimit:10;stroke-dasharray:none;stroke-opacity:1"
             id="path1014"
             inkscape:connector-curvature="0" /></g><g
           id="g1016"><path
             d="m 315.094,231.203 c 0,4.473 -14.504,8.098 -32.395,8.098 -17.89,0 -32.39,-3.625 -32.39,-8.098 0,-4.473 14.5,-8.098 32.39,-8.098 17.891,0 32.395,3.625 32.395,8.098"
             style="fill:#ffffff;fill-opacity:1;fill-rule:evenodd;stroke:#000000;stroke-width:1;stroke-linecap:butt;stroke-linejoin:miter;stroke-miterlimit:10;stroke-dasharray:none;stroke-opacity:1"
             id="path1018"
             inkscape:connector-curvature="0" /></g><text
           transform="translate(268.08203,232.86425)"
           style="font-variant:normal;font-weight:normal;font-size:5.44238281px;font-family:'DejaVu Sans';-inkscape-font-specification:DejaVuSans;writing-mode:lr-tb;fill:#000000;fill-opacity:1;fill-rule:nonzero;stroke:none"
           id="text1022"><tspan
             x="0 4.0709023 7.4179678 10.862996 13.099816 16.430553 17.938095 19.66333 23.734232 27.081297"
             y="0"
             sodipodi:role="line"
             id="tspan1020">Neural Net</tspan></text>
<g
           id="g1024"><path
             d="m 418.566,181.027 31.086,16.996"
             style="fill:none;stroke:#000000;stroke-width:1;stroke-linecap:butt;stroke-linejoin:miter;stroke-miterlimit:10;stroke-dasharray:none;stroke-opacity:1"
             id="path1026"
             inkscape:connector-curvature="0" /></g><g
           id="g1028"><path
             d="m 452.449,199.551 -4.75,-0.172 1.953,-1.356 0.086,-2.375 z"
             style="fill:#000000;fill-opacity:1;fill-rule:evenodd;stroke:#000000;stroke-width:1;stroke-linecap:butt;stroke-linejoin:miter;stroke-miterlimit:10;stroke-dasharray:none;stroke-opacity:1"
             id="path1030"
             inkscape:connector-curvature="0" /></g><path
           d="m 508.949,235.664 c 0,4.66 -15.109,8.438 -33.754,8.438 -18.64,0 -33.754,-3.778 -33.754,-8.438 0,-4.66 15.114,-8.437 33.754,-8.437 18.645,0 33.754,3.777 33.754,8.437"
           style="fill:#ffffff;fill-opacity:1;fill-rule:evenodd;stroke:none"
           id="path1032"
           inkscape:connector-curvature="0" /><g
           id="g1034"><path
             d="m 508.949,235.664 c 0,4.66 -15.109,8.438 -33.754,8.438 -18.64,0 -33.754,-3.778 -33.754,-8.438 0,-4.66 15.114,-8.437 33.754,-8.437 18.645,0 33.754,3.777 33.754,8.437"
             style="fill:none;stroke:#000000;stroke-width:1;stroke-linecap:butt;stroke-linejoin:miter;stroke-miterlimit:10;stroke-dasharray:none;stroke-opacity:1"
             id="path1036"
             inkscape:connector-curvature="0" /></g><text
           transform="translate(457.80469,237.32519)"
           style="font-variant:normal;font-weight:normal;font-size:5.44238281px;font-family:'DejaVu Sans';-inkscape-font-specification:DejaVuSans;writing-mode:lr-tb;fill:#000000;fill-opacity:1;fill-rule:nonzero;stroke:none"
           id="text1040"><tspan
             x="0 3.72259 7.1676183 9.301033 12.626328 15.973394 19.418423 22.40629 25.731586 29.182058 32.529121"
             y="0"
             sodipodi:role="line"
             id="tspan1038">Autoencoder</tspan></text>
<g
           id="g1042"><path
             d="m 474.578,216.168 0.387,6.926"
             style="fill:none;stroke:#000000;stroke-width:1;stroke-linecap:butt;stroke-linejoin:miter;stroke-miterlimit:10;stroke-dasharray:none;stroke-opacity:1"
             id="path1044"
             inkscape:connector-curvature="0" /></g><g
           id="g1046"><path
             d="m 475.141,226.277 -2.36,-4.129 2.184,0.946 2.062,-1.18 z"
             style="fill:#000000;fill-opacity:1;fill-rule:evenodd;stroke:#000000;stroke-width:1;stroke-linecap:butt;stroke-linejoin:miter;stroke-miterlimit:10;stroke-dasharray:none;stroke-opacity:1"
             id="path1048"
             inkscape:connector-curvature="0" /></g><g
           id="g1050"><path
             d="m 389.547,185.875 -4.766,10.328"
             style="fill:none;stroke:#000000;stroke-width:1;stroke-linecap:butt;stroke-linejoin:miter;stroke-miterlimit:10;stroke-dasharray:none;stroke-opacity:1"
             id="path1052"
             inkscape:connector-curvature="0" /></g><g
           id="g1054"><path
             d="m 383.445,199.098 -0.148,-4.754 1.484,1.859 2.375,-0.074 z"
             style="fill:#000000;fill-opacity:1;fill-rule:evenodd;stroke:#000000;stroke-width:1;stroke-linecap:butt;stroke-linejoin:miter;stroke-miterlimit:10;stroke-dasharray:none;stroke-opacity:1"
             id="path1056"
             inkscape:connector-curvature="0" /></g><g
           id="g1058"><path
             d="m 419.664,236.109 c 0,5.024 -16.293,9.098 -36.394,9.098 -20.098,0 -36.395,-4.074 -36.395,-9.098 0,-5.023 16.297,-9.097 36.395,-9.097 20.101,0 36.394,4.074 36.394,9.097"
             style="fill:#ffffff;fill-opacity:1;fill-rule:evenodd;stroke:#000000;stroke-width:1;stroke-linecap:butt;stroke-linejoin:miter;stroke-miterlimit:10;stroke-dasharray:none;stroke-opacity:1"
             id="path1060"
             inkscape:connector-curvature="0" /></g><text
           transform="translate(361.51953,237.7705)"
           style="font-variant:normal;font-weight:normal;font-size:5.44238281px;font-family:'DejaVu Sans';-inkscape-font-specification:DejaVuSans;writing-mode:lr-tb;fill:#000000;fill-opacity:1;fill-rule:nonzero;stroke:none"
           id="text1064"><tspan
             x="0 4.1906347 5.698175 8.5282145 10.661629 13.992367 17.437395 20.425262 23.772329 25.731586 31.032469 34.363205 36.49662 38.73344 40.240978"
             y="0"
             sodipodi:role="line"
             id="tspan1062">Distance-matrix</tspan></text>
<g
           id="g1066"><path
             d="m 383.047,216.117 0.141,6.754"
             style="fill:none;stroke:#000000;stroke-width:1;stroke-linecap:butt;stroke-linejoin:miter;stroke-miterlimit:10;stroke-dasharray:none;stroke-opacity:1"
             id="path1068"
             inkscape:connector-curvature="0" /></g><g
           id="g1070"><path
             d="m 383.25,226.059 -2.211,-4.207 2.149,1.019 2.101,-1.105 z"
             style="fill:#000000;fill-opacity:1;fill-rule:evenodd;stroke:#000000;stroke-width:1;stroke-linecap:butt;stroke-linejoin:miter;stroke-miterlimit:10;stroke-dasharray:none;stroke-opacity:1"
             id="path1072"
             inkscape:connector-curvature="0" /></g><g
           id="g1074"><path
             d="m 261.469,258.254 c 0,5.262 -15.352,9.527 -34.289,9.527 -18.938,0 -34.289,-4.265 -34.289,-9.527 0,-5.266 15.351,-9.531 34.289,-9.531 18.937,0 34.289,4.265 34.289,9.531"
             style="fill:#ffffff;fill-opacity:1;fill-rule:evenodd;stroke:#000000;stroke-width:1;stroke-linecap:butt;stroke-linejoin:miter;stroke-miterlimit:10;stroke-dasharray:none;stroke-opacity:1"
             id="path1076"
             inkscape:connector-curvature="0" /></g><text
           transform="translate(205.57812,259.91503)"
           style="font-variant:normal;font-weight:normal;font-size:5.44238281px;font-family:'DejaVu Sans';-inkscape-font-specification:DejaVuSans;writing-mode:lr-tb;fill:#000000;fill-opacity:1;fill-rule:nonzero;stroke:none"
           id="text1080"><tspan
             x="0 3.7987833 5.9158702 9.2629356 12.593675 14.727088 18.074154 19.799389 22.629429 25.976494 29.307232 31.440647 34.885674 37.002762 40.349827"
             y="0"
             sodipodi:role="line"
             id="tspan1078">Create Features</tspan></text>
<g
           id="g1082"><path
             d="m 259.793,236.93 -16.008,10.281"
             style="fill:none;stroke:#000000;stroke-width:1;stroke-linecap:butt;stroke-linejoin:miter;stroke-miterlimit:10;stroke-dasharray:none;stroke-opacity:1"
             id="path1084"
             inkscape:connector-curvature="0" /></g><g
           id="g1086"><path
             d="m 241.102,248.934 2.429,-4.086 0.254,2.363 2.043,1.215 z"
             style="fill:#000000;fill-opacity:1;fill-rule:evenodd;stroke:#000000;stroke-width:1;stroke-linecap:butt;stroke-linejoin:miter;stroke-miterlimit:10;stroke-dasharray:none;stroke-opacity:1"
             id="path1088"
             inkscape:connector-curvature="0" /></g><g
           id="g1090"><path
             d="m 332.352,256.305 c 0,5.007 -13.879,9.07 -31.004,9.07 -17.121,0 -31.004,-4.063 -31.004,-9.07 0,-5.012 13.883,-9.071 31.004,-9.071 17.125,0 31.004,4.059 31.004,9.071"
             style="fill:#ffffff;fill-opacity:1;fill-rule:evenodd;stroke:#000000;stroke-width:1;stroke-linecap:butt;stroke-linejoin:miter;stroke-miterlimit:10;stroke-dasharray:none;stroke-opacity:1"
             id="path1092"
             inkscape:connector-curvature="0" /></g><text
           transform="translate(283.27734,257.96581)"
           style="font-variant:normal;font-weight:normal;font-size:5.44238281px;font-family:'DejaVu Sans';-inkscape-font-specification:DejaVuSans;writing-mode:lr-tb;fill:#000000;fill-opacity:1;fill-rule:nonzero;stroke:none"
           id="text1096"><tspan
             x="0 3.7987833 5.9158702 9.2629356 12.593675 14.727088 18.074154 19.799389 24.490723 27.816019 31.266491 34.613556"
             y="0"
             sodipodi:role="line"
             id="tspan1094">Create Model</tspan></text>
<g
           id="g1098"><path
             d="m 295.094,238.684 3.808,5.207"
             style="fill:none;stroke:#000000;stroke-width:1;stroke-linecap:butt;stroke-linejoin:miter;stroke-miterlimit:10;stroke-dasharray:none;stroke-opacity:1"
             id="path1100"
             inkscape:connector-curvature="0" /></g><g
           id="g1102"><path
             d="m 300.785,246.465 -4.223,-2.176 2.34,-0.398 1.09,-2.114 z"
             style="fill:#000000;fill-opacity:1;fill-rule:evenodd;stroke:#000000;stroke-width:1;stroke-linecap:butt;stroke-linejoin:miter;stroke-miterlimit:10;stroke-dasharray:none;stroke-opacity:1"
             id="path1104"
             inkscape:connector-curvature="0" /></g><g
           id="g1106"><path
             d="m 358.184,279.738 c 0,5.008 -9.301,9.071 -20.77,9.071 -11.473,0 -20.773,-4.063 -20.773,-9.071 0,-5.011 9.3,-9.074 20.773,-9.074 11.469,0 20.77,4.063 20.77,9.074"
             style="fill:#ffffff;fill-opacity:1;fill-rule:evenodd;stroke:#000000;stroke-width:1;stroke-linecap:butt;stroke-linejoin:miter;stroke-miterlimit:10;stroke-dasharray:none;stroke-opacity:1"
             id="path1108"
             inkscape:connector-curvature="0" /></g><text
           transform="translate(328.04687,281.3955)"
           style="font-variant:normal;font-weight:normal;font-size:5.44238281px;font-family:'DejaVu Sans';-inkscape-font-specification:DejaVuSans;writing-mode:lr-tb;fill:#000000;fill-opacity:1;fill-rule:nonzero;stroke:none"
           id="text1112"><tspan
             x="0 3.183794 5.3008809 8.6479464 12.098417 13.605957 16.593826"
             y="0"
             sodipodi:role="line"
             id="tspan1110">Predict</tspan></text>
<g
           id="g1114"><path
             d="m 297.191,280.055 c 0,5.265 -9.515,9.535 -21.257,9.535 -11.739,0 -21.258,-4.27 -21.258,-9.535 0,-5.262 9.519,-9.532 21.258,-9.532 11.742,0 21.257,4.27 21.257,9.532"
             style="fill:#ffffff;fill-opacity:1;fill-rule:evenodd;stroke:#000000;stroke-width:1;stroke-linecap:butt;stroke-linejoin:miter;stroke-miterlimit:10;stroke-dasharray:none;stroke-opacity:1"
             id="path1116"
             inkscape:connector-curvature="0" /></g><text
           transform="translate(264.05078,281.71581)"
           style="font-variant:normal;font-weight:normal;font-size:5.44238281px;font-family:'DejaVu Sans';-inkscape-font-specification:DejaVuSans;writing-mode:lr-tb;fill:#000000;fill-opacity:1;fill-rule:nonzero;stroke:none"
           id="text1120"><tspan
             x="0 3.4341438 6.6505919 9.9813309 11.488871 14.933899 18.264637 20.398052"
             y="0"
             sodipodi:role="line"
             id="tspan1118">Evaluate</tspan></text>
<g
           id="g1122"><path
             d="m 289.484,264.684 -2.781,3.371"
             style="fill:none;stroke:#000000;stroke-width:1;stroke-linecap:butt;stroke-linejoin:miter;stroke-miterlimit:10;stroke-dasharray:none;stroke-opacity:1"
             id="path1124"
             inkscape:connector-curvature="0" /></g><g
           id="g1126"><path
             d="m 284.676,270.516 1.062,-4.633 0.965,2.172 2.317,0.531 z"
             style="fill:#000000;fill-opacity:1;fill-rule:evenodd;stroke:#000000;stroke-width:1;stroke-linecap:butt;stroke-linejoin:miter;stroke-miterlimit:10;stroke-dasharray:none;stroke-opacity:1"
             id="path1128"
             inkscape:connector-curvature="0" /></g><g
           id="g1130"><path
             d="m 323.273,262.719 3.778,5.273"
             style="fill:none;stroke:#000000;stroke-width:1;stroke-linecap:butt;stroke-linejoin:miter;stroke-miterlimit:10;stroke-dasharray:none;stroke-opacity:1"
             id="path1132"
             inkscape:connector-curvature="0" /></g><g
           id="g1134"><path
             d="m 328.91,270.582 -4.207,-2.215 2.348,-0.375 1.109,-2.101 z"
             style="fill:#000000;fill-opacity:1;fill-rule:evenodd;stroke:#000000;stroke-width:1;stroke-linecap:butt;stroke-linejoin:miter;stroke-miterlimit:10;stroke-dasharray:none;stroke-opacity:1"
             id="path1136"
             inkscape:connector-curvature="0" /></g></g></g></g></svg>